<svg width="287" height="169" viewBox="0 0 287 169" fill="none" xmlns="http://www.w3.org/2000/svg">
<g style="mix-blend-mode:multiply" opacity="0.4">
<path d="M278.152 49.2485C300.253 85.7788 279.113 143.111 235.15 161.714C190.947 180.318 123.922 160.361 83.3232 134.824C42.7239 109.287 28.3099 78.3374 39.8411 51.7853C51.6125 25.4024 89.0888 3.58572 140.258 0.372409C191.428 -2.67178 256.291 12.8874 278.152 49.2485Z" fill="#FFEFEB"/>
</g>
<g style="mix-blend-mode:multiply" opacity="0.4">
<path d="M108.796 6.22642C165.433 5.5442 238.959 36.4672 252.606 67.7643C266.187 99.199 220.124 131.063 173.609 145.953C127.094 160.842 80.2964 158.949 46.7238 143.631C13.4514 128.23 -6.42763 99.5957 3.20725 69.2172C13.0762 38.8941 52.4591 6.82646 108.796 6.22642Z" fill="#FFEFEB"/>
</g>
</svg>
